<?xml version="1.0" standalone="no"?>
<!DOCTYPE svg PUBLIC "-//W3C//DTD SVG 20010904//EN"
 "http://www.w3.org/TR/2001/REC-SVG-20010904/DTD/svg10.dtd">
<svg version="1.0" xmlns="http://www.w3.org/2000/svg"
 width="297.000000pt" height="297.000000pt" viewBox="0 0 297.000000 297.000000"
 preserveAspectRatio="xMidYMid meet">
<metadata>
Created by potrace 1.14, written by Peter Selinger 2001-2017
</metadata>
<g transform="translate(0.000000,297.000000) scale(0.100000,-0.100000)"
fill="#000000" stroke="none">
<path d="M250 1711 c-7 -13 -9 -98 -8 -248 l3 -228 38 -3 37 -3 0 93 c0 60 4
98 12 106 7 7 43 12 90 12 95 0 98 -4 98 -124 l0 -86 35 0 35 0 -2 248 -3 247
-30 0 -30 0 -3 -80 c-4 -134 3 -126 -105 -123 l-92 3 -5 100 c-5 100 -5 100
-32 103 -19 2 -30 -3 -38 -17z"/>
<path d="M720 1715 c-7 -8 -10 -25 -6 -40 l6 -25 171 0 170 0 -3 38 -3 37
-161 3 c-134 2 -163 0 -174 -13z"/>
<path d="M1246 1721 c-10 -16 -97 -451 -94 -468 4 -20 56 -39 69 -26 5 5 25
90 44 189 20 98 38 185 41 193 10 30 23 -10 59 -184 20 -99 42 -186 50 -194
12 -12 18 -12 40 3 17 11 24 23 21 34 -3 9 -21 107 -41 217 -19 110 -40 210
-45 223 -9 20 -17 22 -74 22 -36 0 -67 -4 -70 -9z"/>
<path d="M1582 1718 c-14 -18 -14 -468 0 -485 8 -10 54 -13 169 -13 143 0 159
2 168 18 6 10 7 28 4 40 -5 21 -11 22 -128 22 -90 0 -126 4 -134 13 -7 9 -12
86 -13 213 l-3 199 -26 3 c-14 2 -31 -3 -37 -10z"/>
<path d="M1970 1716 c-6 -8 -10 -25 -8 -38 3 -20 10 -24 63 -28 l60 -5 8 -55
c4 -30 5 -117 2 -192 -4 -91 -3 -144 5 -157 13 -25 55 -28 68 -5 5 9 7 95 4
193 -6 216 -5 219 76 223 51 3 57 5 60 26 7 47 -9 52 -173 52 -121 0 -155 -3
-165 -14z"/>
<path d="M2387 1724 c-4 -4 -7 -117 -7 -251 l0 -243 35 0 35 0 0 93 c0 59 4
97 12 105 16 16 160 16 176 0 8 -8 12 -46 12 -105 l0 -93 35 0 35 0 -2 248 -3
247 -30 0 -30 0 -5 -100 -5 -100 -95 0 -95 0 -5 100 c-5 98 -5 100 -30 103
-14 2 -29 0 -33 -4z"/>
<path d="M726 1507 c-11 -8 -17 -23 -14 -38 l3 -24 173 -3 172 -2 0 34 c0 22
-6 36 -16 40 -32 12 -299 7 -318 -7z"/>
<path d="M714 1275 c-13 -51 4 -56 180 -53 l161 3 3 38 3 37 -170 0 -171 0 -6
-25z"/>
</g>
</svg>
